<mxfile host="app.diagrams.net" modified="2021-03-16T08:25:56.458Z" agent="5.0 (Windows NT 10.0; Win64; x64) AppleWebKit/537.36 (KHTML, like Gecko) Chrome/89.0.4389.82 Safari/537.36" etag="pLTRrEmk7CsRTEcW4Wrr" version="14.4.8" type="github">
  <diagram id="Fv4TLJ8n9y3qahRnpBmT" name="Page-1">
    <mxGraphModel dx="1564" dy="874" grid="1" gridSize="10" guides="1" tooltips="1" connect="1" arrows="1" fold="1" page="1" pageScale="1" pageWidth="827" pageHeight="1169" math="0" shadow="0">
      <root>
        <mxCell id="0" />
        <mxCell id="1" parent="0" />
        <mxCell id="fHyHoo1khflVLOXFvbHD-1" value="&lt;div style=&quot;text-align: center ; box-sizing: border-box ; width: 100% ; background: rgb(228 , 228 , 228) ; padding: 2px ; font-size: 14px&quot;&gt;&lt;font style=&quot;font-size: 14px&quot;&gt;&lt;span style=&quot;font-family: &amp;#34;apple sd gothic neo&amp;#34; , &amp;#34;apple sd 산돌고딕 neo&amp;#34; , &amp;#34;malgun gothic&amp;#34; , &amp;#34;맑은 고딕&amp;#34; , sans-serif ; background-color: rgb(239 , 240 , 242)&quot;&gt;&lt;font color=&quot;#ff5959&quot; style=&quot;font-size: 14px&quot;&gt;&lt;b&gt;배송 delivery&lt;/b&gt;&lt;/font&gt;&lt;/span&gt;&lt;br&gt;&lt;/font&gt;&lt;/div&gt;&lt;table style=&quot;width: 100% ; font-size: 14px&quot; cellpadding=&quot;2&quot; cellspacing=&quot;0&quot;&gt;&lt;tbody&gt;&lt;tr&gt;&lt;td&gt;&lt;font style=&quot;font-size: 14px&quot;&gt;PK&lt;br&gt;&lt;/font&gt;&lt;/td&gt;&lt;td&gt;&lt;font style=&quot;font-size: 14px&quot;&gt;SEND_NUM&lt;br&gt;&lt;/font&gt;&lt;/td&gt;&lt;td&gt;&lt;font style=&quot;font-size: 14px&quot;&gt;NUMBER&lt;br&gt;&lt;/font&gt;&lt;/td&gt;&lt;td&gt;&lt;/td&gt;&lt;td&gt;&lt;font style=&quot;font-size: 14px&quot;&gt;NOT&amp;nbsp;NULL&lt;br&gt;&lt;/font&gt;&lt;/td&gt;&lt;td&gt;&lt;font style=&quot;font-size: 14px&quot;&gt;&lt;br&gt;&lt;/font&gt;&lt;/td&gt;&lt;td&gt;&lt;font style=&quot;font-size: 14px&quot;&gt;운송장 번호&lt;br&gt;&lt;/font&gt;&lt;/td&gt;&lt;/tr&gt;&lt;tr&gt;&lt;td&gt;&lt;font style=&quot;font-size: 14px&quot;&gt;FK1&lt;/font&gt;&lt;/td&gt;&lt;td&gt;&lt;font style=&quot;font-size: 14px&quot;&gt;ORDER_CD&lt;/font&gt;&lt;/td&gt;&lt;td&gt;&lt;font style=&quot;font-size: 14px&quot;&gt;VARCHAR&lt;/font&gt;&lt;/td&gt;&lt;td&gt;&lt;/td&gt;&lt;td&gt;&lt;font style=&quot;font-size: 14px&quot;&gt;NOT&amp;nbsp;NULL&lt;br&gt;&lt;/font&gt;&lt;/td&gt;&lt;td&gt;&lt;font style=&quot;font-size: 14px&quot;&gt;&lt;br&gt;&lt;/font&gt;&lt;/td&gt;&lt;td&gt;&lt;font style=&quot;font-size: 14px&quot;&gt;주문 번호&lt;br&gt;&lt;/font&gt;&lt;/td&gt;&lt;/tr&gt;&lt;tr&gt;&lt;td&gt;&lt;font style=&quot;font-size: 14px&quot;&gt;&lt;br&gt;&lt;/font&gt;&lt;/td&gt;&lt;td&gt;&lt;font style=&quot;font-size: 14px&quot;&gt;NAME&amp;nbsp;&lt;br&gt;&lt;/font&gt;&lt;/td&gt;&lt;td&gt;&lt;font style=&quot;font-size: 14px&quot;&gt;VARCHAR&lt;/font&gt;&lt;/td&gt;&lt;td&gt;&lt;/td&gt;&lt;td&gt;&lt;font style=&quot;font-size: 14px&quot;&gt;NOT&amp;nbsp;NULL&lt;br&gt;&lt;/font&gt;&lt;/td&gt;&lt;td&gt;&lt;font style=&quot;font-size: 14px&quot;&gt;&lt;br&gt;&lt;/font&gt;&lt;/td&gt;&lt;td&gt;&lt;font style=&quot;font-size: 14px&quot;&gt;받는 사람&lt;br&gt;&lt;/font&gt;&lt;/td&gt;&lt;/tr&gt;&lt;tr&gt;&lt;td&gt;&lt;font style=&quot;font-size: 14px&quot;&gt;&lt;br&gt;&lt;/font&gt;&lt;/td&gt;&lt;td&gt;&lt;font style=&quot;font-size: 14px&quot;&gt;ADDRESS&lt;br&gt;&lt;/font&gt;&lt;/td&gt;&lt;td&gt;&lt;font style=&quot;font-size: 14px&quot;&gt;VARCHAR&lt;/font&gt;&lt;/td&gt;&lt;td&gt;&lt;/td&gt;&lt;td&gt;&lt;font style=&quot;font-size: 14px&quot;&gt;NOT&amp;nbsp;NULL&lt;br&gt;&lt;/font&gt;&lt;/td&gt;&lt;td&gt;&lt;font style=&quot;font-size: 14px&quot;&gt;&lt;br&gt;&lt;/font&gt;&lt;/td&gt;&lt;td&gt;&lt;font style=&quot;font-size: 14px&quot;&gt;수신자 주소&lt;br&gt;&lt;/font&gt;&lt;/td&gt;&lt;/tr&gt;&lt;tr&gt;&lt;td&gt;&lt;font style=&quot;font-size: 14px&quot;&gt;&lt;br&gt;&lt;/font&gt;&lt;/td&gt;&lt;td&gt;&lt;font style=&quot;font-size: 14px&quot;&gt;TELL&amp;nbsp;&lt;br&gt;&lt;/font&gt;&lt;/td&gt;&lt;td&gt;&lt;font style=&quot;font-size: 14px&quot;&gt;VARCHAR&lt;/font&gt;&lt;/td&gt;&lt;td&gt;&lt;/td&gt;&lt;td&gt;&lt;font style=&quot;font-size: 14px&quot;&gt;NOT NULL&lt;br&gt;&lt;/font&gt;&lt;/td&gt;&lt;td&gt;&lt;font style=&quot;font-size: 14px&quot;&gt;&lt;br&gt;&lt;/font&gt;&lt;/td&gt;&lt;td&gt;&lt;font style=&quot;font-size: 14px&quot;&gt;수신자 전화번호&lt;br&gt;&lt;/font&gt;&lt;/td&gt;&lt;/tr&gt;&lt;tr&gt;&lt;td&gt;&lt;font style=&quot;font-size: 14px&quot;&gt;&lt;br&gt;&lt;/font&gt;&lt;/td&gt;&lt;td&gt;&lt;font style=&quot;font-size: 14px&quot;&gt;SEND_PRICE&lt;br&gt;&lt;/font&gt;&lt;/td&gt;&lt;td&gt;&lt;font style=&quot;font-size: 14px&quot;&gt;NUMBER&lt;/font&gt;&lt;/td&gt;&lt;td&gt;&lt;/td&gt;&lt;td&gt;&lt;font style=&quot;font-size: 14px&quot;&gt;NOT NULL&lt;br&gt;&lt;/font&gt;&lt;/td&gt;&lt;td&gt;&lt;font style=&quot;font-size: 14px&quot;&gt;0&lt;/font&gt;&lt;/td&gt;&lt;td&gt;&lt;font style=&quot;font-size: 14px&quot;&gt;배송비&lt;br&gt;&lt;/font&gt;&lt;/td&gt;&lt;/tr&gt;&lt;tr&gt;&lt;td&gt;&lt;font style=&quot;font-size: 14px&quot;&gt;&lt;br&gt;&lt;/font&gt;&lt;/td&gt;&lt;td&gt;&lt;font style=&quot;font-size: 14px&quot;&gt;INS_DT&lt;br&gt;&lt;/font&gt;&lt;/td&gt;&lt;td&gt;&lt;font style=&quot;font-size: 14px&quot;&gt;VARCHAR&lt;/font&gt;&lt;/td&gt;&lt;td&gt;&lt;/td&gt;&lt;td&gt;&lt;font style=&quot;font-size: 14px&quot;&gt;NOT NULL&lt;br&gt;&lt;/font&gt;&lt;/td&gt;&lt;td&gt;&lt;font style=&quot;font-size: 14px&quot;&gt;&lt;br&gt;&lt;/font&gt;&lt;/td&gt;&lt;td&gt;&lt;font style=&quot;font-size: 14px&quot;&gt;등록일&lt;br&gt;&lt;/font&gt;&lt;/td&gt;&lt;/tr&gt;&lt;tr&gt;&lt;td&gt;&lt;font style=&quot;font-size: 14px&quot;&gt;&lt;br&gt;&lt;/font&gt;&lt;/td&gt;&lt;td&gt;&lt;font style=&quot;font-size: 14px&quot;&gt;UPT_DT&lt;br&gt;&lt;/font&gt;&lt;/td&gt;&lt;td&gt;&lt;font style=&quot;font-size: 14px&quot;&gt;VARCHAR&lt;/font&gt;&lt;/td&gt;&lt;td&gt;&lt;/td&gt;&lt;td&gt;&lt;font style=&quot;font-size: 14px&quot;&gt;NOT NULL&lt;br&gt;&lt;/font&gt;&lt;/td&gt;&lt;td&gt;&lt;font style=&quot;font-size: 14px&quot;&gt;&lt;br&gt;&lt;/font&gt;&lt;/td&gt;&lt;td&gt;&lt;font style=&quot;font-size: 14px&quot;&gt;수정일&lt;/font&gt;&lt;/td&gt;&lt;/tr&gt;&lt;/tbody&gt;&lt;/table&gt;" style="verticalAlign=top;align=left;overflow=fill;html=1;rounded=0;shadow=0;comic=0;labelBackgroundColor=none;strokeWidth=1;fontFamily=Verdana;fontSize=12" parent="1" vertex="1">
          <mxGeometry x="220" y="110" width="440" height="200" as="geometry" />
        </mxCell>
        <mxCell id="YZf38XbWruiiutJqBnLg-2" style="edgeStyle=orthogonalEdgeStyle;rounded=0;orthogonalLoop=1;jettySize=auto;html=1;startArrow=ERone;startFill=0;endArrow=ERmany;endFill=0;entryX=0.292;entryY=0;entryDx=0;entryDy=0;entryPerimeter=0;" edge="1" parent="1" source="fHyHoo1khflVLOXFvbHD-2" target="uZn9lpvFgxxXMUND4M2C-1">
          <mxGeometry relative="1" as="geometry">
            <mxPoint x="110" y="650" as="targetPoint" />
          </mxGeometry>
        </mxCell>
        <mxCell id="YZf38XbWruiiutJqBnLg-3" style="edgeStyle=orthogonalEdgeStyle;rounded=0;orthogonalLoop=1;jettySize=auto;html=1;startArrow=ERoneToMany;startFill=0;endArrow=ERone;endFill=0;" edge="1" parent="1" source="fHyHoo1khflVLOXFvbHD-2" target="Q1J3c-8RALh0LBWO_HK5-1">
          <mxGeometry relative="1" as="geometry" />
        </mxCell>
        <mxCell id="fHyHoo1khflVLOXFvbHD-2" value="&lt;div style=&quot;text-align: center ; box-sizing: border-box ; width: 100% ; background: rgb(228 , 228 , 228) ; padding: 2px ; font-size: 15px&quot;&gt;&lt;font style=&quot;font-size: 15px&quot;&gt;&lt;span style=&quot;font-family: &amp;#34;apple sd gothic neo&amp;#34; , &amp;#34;apple sd 산돌고딕 neo&amp;#34; , &amp;#34;malgun gothic&amp;#34; , &amp;#34;맑은 고딕&amp;#34; , sans-serif ; background-color: rgb(239 , 240 , 242)&quot;&gt;&lt;font color=&quot;#ff5959&quot; style=&quot;font-size: 15px&quot;&gt;&lt;b&gt;주문 order&lt;/b&gt;&lt;/font&gt;&lt;/span&gt;&lt;br&gt;&lt;/font&gt;&lt;/div&gt;&lt;table style=&quot;width: 100% ; font-size: 15px&quot; cellpadding=&quot;2&quot; cellspacing=&quot;0&quot;&gt;&lt;tbody&gt;&lt;tr&gt;&lt;td&gt;PK&lt;br&gt;&lt;/td&gt;&lt;td&gt;ORDER_CD&lt;br&gt;&lt;/td&gt;&lt;td&gt;NUMBER&amp;nbsp;&lt;br&gt;&lt;/td&gt;&lt;td&gt;NOT&amp;nbsp;NULL&lt;br&gt;&lt;/td&gt;&lt;td&gt;주문번호&lt;br&gt;&lt;/td&gt;&lt;/tr&gt;&lt;tr&gt;&lt;td&gt;FK1&lt;/td&gt;&lt;td&gt;USER_ID&lt;br&gt;&lt;/td&gt;&lt;td&gt;VARCHAR&lt;br&gt;&lt;/td&gt;&lt;td&gt;NOT&amp;nbsp;NULL&lt;br&gt;&lt;/td&gt;&lt;td&gt;회원코드&lt;br&gt;&lt;/td&gt;&lt;/tr&gt;&lt;tr&gt;&lt;td&gt;FK1&lt;br&gt;&lt;/td&gt;&lt;td&gt;PRD_CD&lt;br&gt;&lt;/td&gt;&lt;td&gt;VARCHAR&lt;br&gt;&lt;/td&gt;&lt;td&gt;NOT&amp;nbsp;NULL&lt;br&gt;&lt;/td&gt;&lt;td&gt;상품코드&lt;br&gt;&lt;/td&gt;&lt;/tr&gt;&lt;tr&gt;&lt;td&gt;&lt;br&gt;&lt;/td&gt;&lt;td&gt;PAY_DT&lt;br&gt;&lt;/td&gt;&lt;td&gt;VARCHAR&amp;nbsp;&lt;br&gt;&lt;/td&gt;&lt;td&gt;NOT&amp;nbsp;NULL&lt;br&gt;&lt;/td&gt;&lt;td&gt;결제일&lt;br&gt;&lt;/td&gt;&lt;/tr&gt;&lt;tr&gt;&lt;td&gt;&lt;br&gt;&lt;/td&gt;&lt;td&gt;TOTAL_PRICE&lt;br&gt;&lt;/td&gt;&lt;td&gt;NUMBER&lt;br&gt;&lt;/td&gt;&lt;td&gt;NOT NULL&lt;br&gt;&lt;/td&gt;&lt;td&gt;총 금액&lt;br&gt;&lt;/td&gt;&lt;/tr&gt;&lt;tr&gt;&lt;td&gt;&lt;br&gt;&lt;/td&gt;&lt;td&gt;INS_DT&lt;br&gt;&lt;/td&gt;&lt;td&gt;VARCHAR&amp;nbsp;&lt;br&gt;&lt;/td&gt;&lt;td&gt;NOT NULL&lt;br&gt;&lt;/td&gt;&lt;td&gt;등록일&lt;br&gt;&lt;/td&gt;&lt;/tr&gt;&lt;tr&gt;&lt;td&gt;&lt;br&gt;&lt;/td&gt;&lt;td&gt;UPT_DT&lt;br&gt;&lt;/td&gt;&lt;td&gt;VARCHAR&amp;nbsp;&lt;br&gt;&lt;/td&gt;&lt;td&gt;NOT NULL&lt;br&gt;&lt;/td&gt;&lt;td&gt;수정일&lt;/td&gt;&lt;/tr&gt;&lt;/tbody&gt;&lt;/table&gt;" style="verticalAlign=top;align=left;overflow=fill;html=1;rounded=0;shadow=0;comic=0;labelBackgroundColor=none;strokeWidth=1;fontFamily=Verdana;fontSize=12" parent="1" vertex="1">
          <mxGeometry x="320" y="380" width="430" height="180" as="geometry" />
        </mxCell>
        <mxCell id="fHyHoo1khflVLOXFvbHD-3" value="" style="rounded=0;orthogonalLoop=1;jettySize=auto;html=1;edgeStyle=orthogonalEdgeStyle;endArrow=ERoneToMany;endFill=0;exitX=0.5;exitY=0;exitDx=0;exitDy=0;startArrow=ERone;startFill=0;" parent="1" source="fHyHoo1khflVLOXFvbHD-2" target="fHyHoo1khflVLOXFvbHD-1" edge="1">
          <mxGeometry relative="1" as="geometry" />
        </mxCell>
        <mxCell id="G0gqWvJ2pvvDoKxaO9it-2" value="" style="edgeStyle=orthogonalEdgeStyle;rounded=0;orthogonalLoop=1;jettySize=auto;html=1;startArrow=ERone;startFill=0;endArrow=ERzeroToOne;endFill=1;fontFamily=Verdana;" edge="1" parent="1" source="G0gqWvJ2pvvDoKxaO9it-5" target="G0gqWvJ2pvvDoKxaO9it-6">
          <mxGeometry relative="1" as="geometry">
            <Array as="points">
              <mxPoint x="970" y="857.5" />
              <mxPoint x="970" y="857.5" />
            </Array>
          </mxGeometry>
        </mxCell>
        <mxCell id="G0gqWvJ2pvvDoKxaO9it-3" style="edgeStyle=orthogonalEdgeStyle;rounded=0;orthogonalLoop=1;jettySize=auto;html=1;startArrow=ERzeroToMany;startFill=1;endArrow=ERone;endFill=0;fontFamily=Verdana;exitX=0.588;exitY=0;exitDx=0;exitDy=0;exitPerimeter=0;entryX=0.003;entryY=0.794;entryDx=0;entryDy=0;entryPerimeter=0;" edge="1" parent="1" source="G0gqWvJ2pvvDoKxaO9it-5" target="Q1J3c-8RALh0LBWO_HK5-1">
          <mxGeometry relative="1" as="geometry">
            <Array as="points">
              <mxPoint x="790" y="680" />
              <mxPoint x="900" y="620" />
            </Array>
            <mxPoint x="880" y="650" as="targetPoint" />
            <mxPoint x="790" y="810" as="sourcePoint" />
          </mxGeometry>
        </mxCell>
        <mxCell id="G0gqWvJ2pvvDoKxaO9it-4" style="edgeStyle=orthogonalEdgeStyle;rounded=0;orthogonalLoop=1;jettySize=auto;html=1;startArrow=ERzeroToMany;startFill=1;endArrow=ERone;endFill=0;fontFamily=Verdana;" edge="1" parent="1" source="G0gqWvJ2pvvDoKxaO9it-5">
          <mxGeometry relative="1" as="geometry">
            <mxPoint x="530" y="908.5" as="sourcePoint" />
            <mxPoint x="250" y="640" as="targetPoint" />
            <Array as="points">
              <mxPoint x="510" y="888" />
              <mxPoint x="510" y="950" />
              <mxPoint x="180" y="950" />
              <mxPoint x="180" y="640" />
              <mxPoint x="240" y="640" />
            </Array>
          </mxGeometry>
        </mxCell>
        <mxCell id="G0gqWvJ2pvvDoKxaO9it-5" value="&lt;div style=&quot;text-align: center ; box-sizing: border-box ; width: 100% ; background: rgb(228 , 228 , 228) ; padding: 2px&quot;&gt;&lt;font style=&quot;font-size: 17px&quot; color=&quot;#ff6666&quot;&gt;게시판 board&lt;/font&gt;&lt;/div&gt;&lt;table style=&quot;width: 100% ; font-size: 1em&quot; cellpadding=&quot;2&quot; cellspacing=&quot;0&quot;&gt;&lt;tbody&gt;&lt;tr&gt;&lt;td&gt;PK&lt;/td&gt;&lt;td&gt;BOARD_NUM&lt;br&gt;&lt;/td&gt;&lt;td&gt;NUMBER&lt;/td&gt;&lt;td&gt;NOT NULL&lt;/td&gt;&lt;td&gt;&lt;br&gt;&lt;/td&gt;&lt;td&gt;게시글 번호&lt;/td&gt;&lt;/tr&gt;&lt;tr&gt;&lt;td&gt;FK&lt;/td&gt;&lt;td&gt;USER_ID&lt;/td&gt;&lt;td&gt;VARCHAR&lt;/td&gt;&lt;td&gt;NOT NULL&lt;/td&gt;&lt;td&gt;&lt;br&gt;&lt;/td&gt;&lt;td&gt;사용자 ID&lt;/td&gt;&lt;/tr&gt;&lt;tr&gt;&lt;td&gt;FK&lt;br&gt;&lt;br&gt;&lt;/td&gt;&lt;td&gt;PRD_CD&lt;br&gt;SUBJECT&lt;/td&gt;&lt;td&gt;VARCHAR&lt;br&gt;VARCHAR&lt;/td&gt;&lt;td&gt;NOT NULL&lt;br&gt;NOT NULL&lt;/td&gt;&lt;td&gt;&lt;br&gt;&lt;/td&gt;&lt;td&gt;상품 코드&lt;br&gt;게시글 제목&lt;/td&gt;&lt;/tr&gt;&lt;tr&gt;&lt;td&gt;&lt;br&gt;&lt;/td&gt;&lt;td&gt;CONTENT&lt;/td&gt;&lt;td&gt;VARCHAR&lt;/td&gt;&lt;td&gt;NOT NULL&lt;/td&gt;&lt;td&gt;&lt;br&gt;&lt;/td&gt;&lt;td&gt;게시글 내용&lt;/td&gt;&lt;/tr&gt;&lt;tr&gt;&lt;td&gt;&lt;br&gt;&lt;/td&gt;&lt;td&gt;SIZE_POINT&lt;/td&gt;&lt;td&gt;NUMBER&lt;/td&gt;&lt;td&gt;&lt;br&gt;&lt;/td&gt;&lt;td&gt;50&lt;/td&gt;&lt;td&gt;사이즈 평점&lt;/td&gt;&lt;/tr&gt;&lt;tr&gt;&lt;td&gt;&lt;br&gt;&lt;/td&gt;&lt;td&gt;COMFORT_POINT&lt;br&gt;&lt;/td&gt;&lt;td&gt;NUMBER&lt;/td&gt;&lt;td&gt;&lt;br&gt;&lt;/td&gt;&lt;td&gt;50&lt;/td&gt;&lt;td&gt;편안함 평점&lt;/td&gt;&lt;/tr&gt;&lt;tr&gt;&lt;td&gt;&lt;br&gt;&lt;/td&gt;&lt;td&gt;DURABLE_POINT&lt;br&gt;&lt;/td&gt;&lt;td&gt;NUMBER&lt;br&gt;&lt;/td&gt;&lt;td&gt;&lt;br&gt;&lt;/td&gt;&lt;td&gt;50&lt;/td&gt;&lt;td&gt;내구성 평점&lt;/td&gt;&lt;/tr&gt;&lt;tr&gt;&lt;td&gt;&lt;br&gt;&lt;/td&gt;&lt;td&gt;WIDTH_POINT&lt;br&gt;&lt;/td&gt;&lt;td&gt;NUMBER&lt;/td&gt;&lt;td&gt;&lt;br&gt;&lt;/td&gt;&lt;td&gt;50&lt;/td&gt;&lt;td&gt;폭 평점&lt;/td&gt;&lt;/tr&gt;&lt;tr&gt;&lt;td&gt;&lt;br&gt;&lt;/td&gt;&lt;td&gt;READ_COUNT&lt;/td&gt;&lt;td&gt;NUMBER&lt;/td&gt;&lt;td&gt;&lt;br&gt;&lt;/td&gt;&lt;td&gt;0&lt;/td&gt;&lt;td&gt;조회수&lt;/td&gt;&lt;/tr&gt;&lt;tr&gt;&lt;td&gt;&lt;br&gt;&lt;/td&gt;&lt;td&gt;RECOMMEND&lt;/td&gt;&lt;td&gt;NUMBER&lt;/td&gt;&lt;td&gt;&lt;br&gt;&lt;/td&gt;&lt;td&gt;0&lt;/td&gt;&lt;td&gt;추천수&lt;/td&gt;&lt;/tr&gt;&lt;tr&gt;&lt;td&gt;&lt;br&gt;&lt;/td&gt;&lt;td&gt;STAR&lt;/td&gt;&lt;td&gt;NUMBER&lt;/td&gt;&lt;td&gt;&lt;br&gt;&lt;/td&gt;&lt;td&gt;5&lt;/td&gt;&lt;td&gt;별점&lt;/td&gt;&lt;/tr&gt;&lt;tr&gt;&lt;td&gt;&lt;br&gt;&lt;/td&gt;&lt;td&gt;BOARD_PW&lt;/td&gt;&lt;td&gt;VARCHAR&lt;/td&gt;&lt;td&gt;NOT NULL&lt;/td&gt;&lt;td&gt;&lt;br&gt;&lt;/td&gt;&lt;td&gt;게시글 비밀번호&lt;/td&gt;&lt;/tr&gt;&lt;tr&gt;&lt;td&gt;&lt;br&gt;&lt;/td&gt;&lt;td&gt;INS_DT&lt;/td&gt;&lt;td&gt;VARCHAR&lt;/td&gt;&lt;td&gt;NULL&lt;/td&gt;&lt;td&gt;&lt;br&gt;&lt;/td&gt;&lt;td&gt;작성일&lt;/td&gt;&lt;/tr&gt;&lt;tr&gt;&lt;td&gt;&lt;br&gt;&lt;/td&gt;&lt;td&gt;UPT_DT&lt;/td&gt;&lt;td&gt;VARCHAR&lt;/td&gt;&lt;td&gt;NULL&lt;/td&gt;&lt;td&gt;&lt;br&gt;&lt;/td&gt;&lt;td&gt;수정일&lt;/td&gt;&lt;/tr&gt;&lt;/tbody&gt;&lt;/table&gt;" style="verticalAlign=top;align=left;overflow=fill;html=1;rounded=0;shadow=0;comic=0;labelBackgroundColor=none;strokeWidth=1;fontFamily=Verdana;fontSize=12" vertex="1" parent="1">
          <mxGeometry x="549" y="817.5" width="410" height="290" as="geometry" />
        </mxCell>
        <mxCell id="G0gqWvJ2pvvDoKxaO9it-6" value="&lt;div style=&quot;text-align: center ; box-sizing: border-box ; width: 100% ; background: rgb(228 , 228 , 228) ; padding: 2px&quot;&gt;&lt;font style=&quot;font-size: 17px&quot; color=&quot;#ff6666&quot;&gt;첨부파일 file&lt;/font&gt;&lt;/div&gt;&lt;table style=&quot;width: 100% ; font-size: 1em&quot; cellpadding=&quot;2&quot; cellspacing=&quot;0&quot;&gt;&lt;tbody&gt;&lt;tr&gt;&lt;td&gt;PK&lt;/td&gt;&lt;td&gt;FILE_ID&lt;br&gt;&lt;/td&gt;&lt;td&gt;NUMBER&lt;/td&gt;&lt;td&gt;NOT NULL&lt;/td&gt;&lt;td&gt;파일 ID&lt;/td&gt;&lt;/tr&gt;&lt;tr&gt;&lt;td&gt;FK&lt;/td&gt;&lt;td&gt;BOARD_NUM&lt;/td&gt;&lt;td&gt;NUMBER&lt;br&gt;&lt;/td&gt;&lt;td&gt;NOT NULL&lt;/td&gt;&lt;td&gt;게시글 번호&lt;/td&gt;&lt;/tr&gt;&lt;tr&gt;&lt;td&gt;&lt;br&gt;&lt;/td&gt;&lt;td&gt;FILE_PATH&lt;/td&gt;&lt;td&gt;VARCHAR&lt;/td&gt;&lt;td&gt;NOT NULL&lt;/td&gt;&lt;td&gt;파일 경로&lt;/td&gt;&lt;/tr&gt;&lt;/tbody&gt;&lt;/table&gt;" style="verticalAlign=top;align=left;overflow=fill;html=1;rounded=0;shadow=0;comic=0;labelBackgroundColor=none;strokeWidth=1;fontFamily=Verdana;fontSize=12" vertex="1" parent="1">
          <mxGeometry x="1000" y="807.5" width="340" height="190" as="geometry" />
        </mxCell>
        <mxCell id="Q1J3c-8RALh0LBWO_HK5-1" value="&lt;div style=&quot;box-sizing: border-box ; width: 100% ; background: rgb(228 , 228 , 228) ; padding: 2px ; text-align: center ; font-size: 15px&quot;&gt;&lt;font color=&quot;#ea6b66&quot; style=&quot;font-size: 15px&quot;&gt;&amp;nbsp;&lt;font style=&quot;font-size: 15px&quot;&gt;&lt;b&gt;회원&lt;/b&gt;&lt;/font&gt; &lt;b&gt;user_mst&lt;/b&gt;&lt;/font&gt;&lt;/div&gt;&lt;table cellpadding=&quot;2&quot; cellspacing=&quot;0&quot; style=&quot;font-size: 13px ; width: 410.667px&quot;&gt;&lt;tbody&gt;&lt;tr&gt;&lt;td&gt;&lt;font style=&quot;font-size: 13px&quot;&gt;PK&lt;/font&gt;&lt;/td&gt;&lt;td&gt;&lt;font style=&quot;font-size: 13px&quot;&gt;BOARD_NUM&lt;br&gt;&lt;/font&gt;&lt;/td&gt;&lt;td&gt;&lt;font style=&quot;font-size: 13px&quot;&gt;NUMBER&lt;/font&gt;&lt;/td&gt;&lt;td&gt;&lt;font style=&quot;font-size: 13px&quot;&gt;NOT NULL&lt;/font&gt;&lt;/td&gt;&lt;td&gt;&lt;font style=&quot;font-size: 13px&quot;&gt;&lt;br&gt;&lt;/font&gt;&lt;/td&gt;&lt;td&gt;&lt;font style=&quot;font-size: 13px&quot;&gt;&lt;br&gt;&lt;/font&gt;&lt;/td&gt;&lt;td&gt;&lt;font style=&quot;font-size: 13px&quot;&gt;목록 ID&lt;/font&gt;&lt;/td&gt;&lt;/tr&gt;&lt;tr&gt;&lt;td&gt;&lt;font style=&quot;font-size: 13px&quot;&gt;PK&lt;/font&gt;&lt;/td&gt;&lt;td&gt;&lt;font style=&quot;font-size: 13px&quot;&gt;USER_ID&lt;/font&gt;&lt;/td&gt;&lt;td&gt;&lt;font style=&quot;font-size: 13px&quot;&gt;VARCHAR&lt;/font&gt;&lt;/td&gt;&lt;td&gt;&lt;font style=&quot;font-size: 13px&quot;&gt;NOT NULL&lt;/font&gt;&lt;/td&gt;&lt;td&gt;&lt;font style=&quot;font-size: 13px&quot;&gt;&lt;br&gt;&lt;/font&gt;&lt;/td&gt;&lt;td&gt;&lt;font style=&quot;font-size: 13px&quot;&gt;&lt;br&gt;&lt;/font&gt;&lt;/td&gt;&lt;td&gt;&lt;font style=&quot;font-size: 13px&quot;&gt;사용자 ID&lt;/font&gt;&lt;/td&gt;&lt;/tr&gt;&lt;tr&gt;&lt;td&gt;&lt;font style=&quot;font-size: 13px&quot;&gt;FK&lt;/font&gt;&lt;/td&gt;&lt;td&gt;&lt;font style=&quot;font-size: 13px&quot;&gt;STATUS_CD&lt;/font&gt;&lt;/td&gt;&lt;td&gt;&lt;font style=&quot;font-size: 13px&quot;&gt;NUMBER&lt;br&gt;&lt;/font&gt;&lt;/td&gt;&lt;td&gt;&lt;font style=&quot;font-size: 13px&quot;&gt;&lt;br&gt;&lt;/font&gt;&lt;/td&gt;&lt;td&gt;&lt;font style=&quot;font-size: 13px&quot;&gt;10&lt;/font&gt;&lt;/td&gt;&lt;td&gt;&lt;font style=&quot;font-size: 13px&quot;&gt;&lt;br&gt;&lt;/font&gt;&lt;/td&gt;&lt;td&gt;&lt;font style=&quot;font-size: 13px&quot;&gt;상태 코드&lt;/font&gt;&lt;/td&gt;&lt;/tr&gt;&lt;tr&gt;&lt;td&gt;&lt;font style=&quot;font-size: 13px&quot;&gt;FK&lt;/font&gt;&lt;/td&gt;&lt;td&gt;&lt;font style=&quot;font-size: 13px&quot;&gt;GRADE_CD&lt;/font&gt;&lt;/td&gt;&lt;td&gt;&lt;font style=&quot;font-size: 13px&quot;&gt;NUMBER&lt;br&gt;&lt;/font&gt;&lt;/td&gt;&lt;td&gt;&lt;font style=&quot;font-size: 13px&quot;&gt;&lt;br&gt;&lt;/font&gt;&lt;/td&gt;&lt;td&gt;&lt;font style=&quot;font-size: 13px&quot;&gt;10&lt;/font&gt;&lt;/td&gt;&lt;td&gt;&lt;font style=&quot;font-size: 13px&quot;&gt;&lt;br&gt;&lt;/font&gt;&lt;/td&gt;&lt;td&gt;&lt;font style=&quot;font-size: 13px&quot;&gt;등급 코드&lt;/font&gt;&lt;/td&gt;&lt;/tr&gt;&lt;tr&gt;&lt;td&gt;&lt;font style=&quot;font-size: 13px&quot;&gt;&lt;br&gt;&lt;/font&gt;&lt;/td&gt;&lt;td&gt;&lt;font style=&quot;font-size: 13px&quot;&gt;USER_NM&lt;br&gt;&lt;/font&gt;&lt;/td&gt;&lt;td&gt;&lt;font style=&quot;font-size: 13px&quot;&gt;VARCHAR&lt;br&gt;&lt;/font&gt;&lt;/td&gt;&lt;td&gt;&lt;font style=&quot;font-size: 13px&quot;&gt;NOT NULL&lt;br&gt;&lt;/font&gt;&lt;/td&gt;&lt;td&gt;&lt;font style=&quot;font-size: 13px&quot;&gt;&lt;br&gt;&lt;/font&gt;&lt;/td&gt;&lt;td&gt;&lt;font style=&quot;font-size: 13px&quot;&gt;&lt;br&gt;&lt;/font&gt;&lt;/td&gt;&lt;td&gt;&lt;font style=&quot;font-size: 13px&quot;&gt;사용자 이름&lt;br&gt;&lt;/font&gt;&lt;/td&gt;&lt;/tr&gt;&lt;tr&gt;&lt;td&gt;&lt;font style=&quot;font-size: 13px&quot;&gt;&lt;br&gt;&lt;/font&gt;&lt;/td&gt;&lt;td&gt;&lt;font style=&quot;font-size: 13px&quot;&gt;PASSWORD&lt;br&gt;&lt;/font&gt;&lt;/td&gt;&lt;td&gt;&lt;font style=&quot;font-size: 13px&quot;&gt;VARCHAR&lt;br&gt;&lt;/font&gt;&lt;/td&gt;&lt;td&gt;&lt;font style=&quot;font-size: 13px&quot;&gt;NOT NULL&lt;br&gt;&lt;/font&gt;&lt;/td&gt;&lt;td&gt;&lt;font style=&quot;font-size: 13px&quot;&gt;&lt;br&gt;&lt;/font&gt;&lt;/td&gt;&lt;td&gt;&lt;font style=&quot;font-size: 13px&quot;&gt;&lt;br&gt;&lt;/font&gt;&lt;/td&gt;&lt;td&gt;&lt;font style=&quot;font-size: 13px&quot;&gt;비밀번호&lt;br&gt;&lt;/font&gt;&lt;/td&gt;&lt;/tr&gt;&lt;tr&gt;&lt;td&gt;&lt;font style=&quot;font-size: 13px&quot;&gt;&lt;br&gt;&lt;/font&gt;&lt;/td&gt;&lt;td&gt;&lt;font style=&quot;font-size: 13px&quot;&gt;TEL&lt;br&gt;&lt;/font&gt;&lt;/td&gt;&lt;td&gt;&lt;font style=&quot;font-size: 13px&quot;&gt;VARCHAR&lt;br&gt;&lt;/font&gt;&lt;/td&gt;&lt;td&gt;&lt;font style=&quot;font-size: 13px&quot;&gt;NOT NULL&lt;br&gt;&lt;/font&gt;&lt;/td&gt;&lt;td&gt;&lt;font style=&quot;font-size: 13px&quot;&gt;&lt;br&gt;&lt;/font&gt;&lt;/td&gt;&lt;td&gt;&lt;font style=&quot;font-size: 13px&quot;&gt;&lt;br&gt;&lt;/font&gt;&lt;/td&gt;&lt;td&gt;&lt;font style=&quot;font-size: 13px&quot;&gt;전화번호&lt;br&gt;&lt;/font&gt;&lt;/td&gt;&lt;/tr&gt;&lt;tr&gt;&lt;td&gt;&lt;font style=&quot;font-size: 13px&quot;&gt;&lt;br&gt;&lt;/font&gt;&lt;/td&gt;&lt;td&gt;&lt;font style=&quot;font-size: 13px&quot;&gt;ADDRESS&lt;/font&gt;&lt;/td&gt;&lt;td&gt;&lt;font style=&quot;font-size: 13px&quot;&gt;VARCHAR&lt;br&gt;&lt;/font&gt;&lt;/td&gt;&lt;td&gt;&lt;font style=&quot;font-size: 13px&quot;&gt;&lt;br&gt;&lt;/font&gt;&lt;/td&gt;&lt;td&gt;&lt;font style=&quot;font-size: 13px&quot;&gt;&lt;br&gt;&lt;/font&gt;&lt;/td&gt;&lt;td&gt;&lt;font style=&quot;font-size: 13px&quot;&gt;&lt;br&gt;&lt;/font&gt;&lt;/td&gt;&lt;td&gt;&lt;font style=&quot;font-size: 13px&quot;&gt;사용자 주소&lt;/font&gt;&lt;/td&gt;&lt;/tr&gt;&lt;tr&gt;&lt;td&gt;&lt;font style=&quot;font-size: 13px&quot;&gt;&lt;br&gt;&lt;/font&gt;&lt;/td&gt;&lt;td&gt;&lt;font style=&quot;font-size: 13px&quot;&gt;GENDER&lt;/font&gt;&lt;/td&gt;&lt;td&gt;&lt;font style=&quot;font-size: 13px&quot;&gt;VARCHAR&lt;br&gt;&lt;/font&gt;&lt;/td&gt;&lt;td&gt;&lt;font style=&quot;font-size: 13px&quot;&gt;&lt;br&gt;&lt;/font&gt;&lt;/td&gt;&lt;td&gt;&lt;font style=&quot;font-size: 13px&quot;&gt;&lt;br&gt;&lt;/font&gt;&lt;/td&gt;&lt;td&gt;&lt;font style=&quot;font-size: 13px&quot;&gt;&lt;br&gt;&lt;/font&gt;&lt;/td&gt;&lt;td&gt;&lt;font style=&quot;font-size: 13px&quot;&gt;성별&lt;/font&gt;&lt;/td&gt;&lt;/tr&gt;&lt;tr&gt;&lt;td&gt;&lt;font style=&quot;font-size: 13px&quot;&gt;&lt;br&gt;&lt;/font&gt;&lt;/td&gt;&lt;td&gt;&lt;font style=&quot;font-size: 13px&quot;&gt;INS_DT&lt;/font&gt;&lt;/td&gt;&lt;td&gt;&lt;font style=&quot;font-size: 13px&quot;&gt;VARCHAR&lt;br&gt;&lt;/font&gt;&lt;/td&gt;&lt;td&gt;&lt;font style=&quot;font-size: 13px&quot;&gt;&lt;br&gt;&lt;/font&gt;&lt;/td&gt;&lt;td&gt;&lt;font style=&quot;font-size: 13px&quot;&gt;&lt;br&gt;&lt;/font&gt;&lt;/td&gt;&lt;td&gt;&lt;font style=&quot;font-size: 13px&quot;&gt;&lt;br&gt;&lt;/font&gt;&lt;/td&gt;&lt;td&gt;&lt;font style=&quot;font-size: 13px&quot;&gt;가입 날짜&lt;/font&gt;&lt;/td&gt;&lt;/tr&gt;&lt;tr&gt;&lt;td&gt;&lt;font style=&quot;font-size: 13px&quot;&gt;&lt;br&gt;&lt;/font&gt;&lt;/td&gt;&lt;td&gt;&lt;font style=&quot;font-size: 13px&quot;&gt;UPT_DT&lt;/font&gt;&lt;/td&gt;&lt;td&gt;&lt;font style=&quot;font-size: 13px&quot;&gt;VARCHAR&lt;br&gt;&lt;/font&gt;&lt;/td&gt;&lt;td&gt;&lt;font style=&quot;font-size: 13px&quot;&gt;&lt;br&gt;&lt;/font&gt;&lt;/td&gt;&lt;td&gt;&lt;font style=&quot;font-size: 13px&quot;&gt;&lt;br&gt;&lt;/font&gt;&lt;/td&gt;&lt;td&gt;&lt;font style=&quot;font-size: 13px&quot;&gt;&lt;br&gt;&lt;/font&gt;&lt;/td&gt;&lt;td&gt;&lt;font style=&quot;font-size: 13px&quot;&gt;수정 날짜&lt;/font&gt;&lt;/td&gt;&lt;/tr&gt;&lt;/tbody&gt;&lt;/table&gt;" style="verticalAlign=top;align=left;overflow=fill;html=1;rounded=0;shadow=0;comic=0;labelBackgroundColor=none;strokeWidth=1;fontFamily=Verdana;fontSize=12;spacingTop=0;spacingBottom=0;" vertex="1" parent="1">
          <mxGeometry x="927.5" y="426" width="402.5" height="244" as="geometry" />
        </mxCell>
        <mxCell id="Q1J3c-8RALh0LBWO_HK5-2" value="" style="edgeStyle=orthogonalEdgeStyle;rounded=0;orthogonalLoop=1;jettySize=auto;html=1;startArrow=ERone;startFill=0;endArrow=ERmany;endFill=0;fontFamily=Verdana;" edge="1" parent="1" source="Q1J3c-8RALh0LBWO_HK5-3">
          <mxGeometry relative="1" as="geometry">
            <mxPoint x="1070" y="280" as="sourcePoint" />
            <mxPoint x="926.53" y="516" as="targetPoint" />
            <Array as="points">
              <mxPoint x="1070" y="291" />
              <mxPoint x="1070" y="340" />
              <mxPoint x="905" y="516" />
            </Array>
          </mxGeometry>
        </mxCell>
        <mxCell id="Q1J3c-8RALh0LBWO_HK5-3" value="&lt;div style=&quot;text-align: center ; box-sizing: border-box ; width: 100% ; background: rgb(228 , 228 , 228) ; padding: 2px&quot;&gt;&lt;font color=&quot;#ea6b66&quot; size=&quot;1&quot;&gt;&lt;b style=&quot;font-size: 15px&quot;&gt;회원 등급 user_grade&lt;/b&gt;&lt;/font&gt;&lt;/div&gt;&lt;table style=&quot;width: 100% ; font-size: 13px&quot; cellpadding=&quot;2&quot; cellspacing=&quot;0&quot;&gt;&lt;tbody&gt;&lt;tr&gt;&lt;td&gt;&lt;font style=&quot;font-size: 13px&quot;&gt;PK&lt;/font&gt;&lt;/td&gt;&lt;td&gt;&lt;font style=&quot;font-size: 13px&quot;&gt;GRADE_CD&lt;/font&gt;&lt;/td&gt;&lt;td&gt;&lt;font style=&quot;font-size: 13px&quot;&gt;NUMBER&lt;/font&gt;&lt;/td&gt;&lt;td&gt;&lt;font style=&quot;font-size: 13px&quot;&gt;NOT NULL&lt;/font&gt;&lt;/td&gt;&lt;td&gt;&lt;font style=&quot;font-size: 13px&quot;&gt;등급 코드&lt;/font&gt;&lt;/td&gt;&lt;/tr&gt;&lt;tr&gt;&lt;td&gt;&lt;font style=&quot;font-size: 13px&quot;&gt;&lt;br&gt;&lt;/font&gt;&lt;/td&gt;&lt;td&gt;&lt;font style=&quot;font-size: 13px&quot;&gt;GRADE_NM&lt;br&gt;&lt;/font&gt;&lt;/td&gt;&lt;td&gt;&lt;font style=&quot;font-size: 13px&quot;&gt;VARCHAR&lt;/font&gt;&lt;/td&gt;&lt;td&gt;&lt;font style=&quot;font-size: 13px&quot;&gt;NOT NULL&lt;/font&gt;&lt;/td&gt;&lt;td&gt;&lt;font style=&quot;font-size: 13px&quot;&gt;등급명&lt;/font&gt;&lt;/td&gt;&lt;/tr&gt;&lt;/tbody&gt;&lt;/table&gt;" style="verticalAlign=top;align=left;overflow=fill;html=1;rounded=0;shadow=0;comic=0;labelBackgroundColor=none;strokeWidth=1;fontFamily=Verdana;fontSize=12" vertex="1" parent="1">
          <mxGeometry x="1100" y="240" width="340" height="80" as="geometry" />
        </mxCell>
        <mxCell id="Q1J3c-8RALh0LBWO_HK5-4" value="" style="edgeStyle=orthogonalEdgeStyle;rounded=0;orthogonalLoop=1;jettySize=auto;html=1;startArrow=ERone;startFill=0;endArrow=ERmany;endFill=0;fontFamily=Verdana;exitX=0;exitY=0.5;exitDx=0;exitDy=0;" edge="1" parent="1" source="Q1J3c-8RALh0LBWO_HK5-5">
          <mxGeometry relative="1" as="geometry">
            <mxPoint x="1310" y="220" as="sourcePoint" />
            <mxPoint x="927.5" y="497" as="targetPoint" />
            <Array as="points">
              <mxPoint x="1010" y="160" />
              <mxPoint x="1010" y="220" />
              <mxPoint x="895" y="220" />
              <mxPoint x="895" y="497" />
            </Array>
          </mxGeometry>
        </mxCell>
        <mxCell id="Q1J3c-8RALh0LBWO_HK5-5" value="&lt;div style=&quot;text-align: center ; box-sizing: border-box ; width: 100% ; background: rgb(228 , 228 , 228) ; padding: 2px&quot;&gt;&lt;font color=&quot;#ea6b66&quot; size=&quot;1&quot;&gt;&lt;b style=&quot;font-size: 15px&quot;&gt;회원 상태 user_status&lt;/b&gt;&lt;/font&gt;&lt;/div&gt;&lt;table style=&quot;width: 100% ; font-size: 13px&quot; cellpadding=&quot;2&quot; cellspacing=&quot;0&quot;&gt;&lt;tbody&gt;&lt;tr&gt;&lt;td&gt;&lt;font style=&quot;font-size: 13px&quot;&gt;PK&lt;/font&gt;&lt;/td&gt;&lt;td&gt;&lt;font style=&quot;font-size: 13px&quot;&gt;STATUS_CD&lt;/font&gt;&lt;/td&gt;&lt;td&gt;&lt;font style=&quot;font-size: 13px&quot;&gt;NUMBER&lt;/font&gt;&lt;/td&gt;&lt;td&gt;&lt;font style=&quot;font-size: 13px&quot;&gt;NOT NULL&lt;/font&gt;&lt;/td&gt;&lt;td&gt;&lt;font style=&quot;font-size: 13px&quot;&gt;상태 코드&lt;/font&gt;&lt;/td&gt;&lt;/tr&gt;&lt;tr&gt;&lt;td&gt;&lt;font style=&quot;font-size: 13px&quot;&gt;&lt;br&gt;&lt;/font&gt;&lt;/td&gt;&lt;td&gt;&lt;font style=&quot;font-size: 13px&quot;&gt;STATUS_NM&lt;br&gt;&lt;/font&gt;&lt;/td&gt;&lt;td&gt;&lt;font style=&quot;font-size: 13px&quot;&gt;VARCHAR&lt;/font&gt;&lt;/td&gt;&lt;td&gt;&lt;font style=&quot;font-size: 13px&quot;&gt;NOT NULL&lt;/font&gt;&lt;/td&gt;&lt;td&gt;&lt;font style=&quot;font-size: 13px&quot;&gt;상태명&lt;/font&gt;&lt;/td&gt;&lt;/tr&gt;&lt;/tbody&gt;&lt;/table&gt;" style="verticalAlign=top;align=left;overflow=fill;html=1;rounded=0;shadow=0;comic=0;labelBackgroundColor=none;strokeWidth=1;fontFamily=Verdana;fontSize=12;spacingBottom=-9;" vertex="1" parent="1">
          <mxGeometry x="1100" y="120" width="340" height="80" as="geometry" />
        </mxCell>
        <mxCell id="uZn9lpvFgxxXMUND4M2C-1" value="&lt;div style=&quot;text-align: right ; box-sizing: border-box ; width: 100% ; background: rgb(228 , 228 , 228) ; padding: 2px&quot;&gt;&lt;font color=&quot;#ff3333&quot; style=&quot;font-size: 15px&quot;&gt;상품&amp;nbsp; product&lt;/font&gt;&lt;font color=&quot;#ff3333&quot; style=&quot;font-size: 16px&quot;&gt;&amp;nbsp; &lt;b&gt;&amp;nbsp; &amp;nbsp; &amp;nbsp; &amp;nbsp; &amp;nbsp; &amp;nbsp; &amp;nbsp; &amp;nbsp; &amp;nbsp; &amp;nbsp; &amp;nbsp; &amp;nbsp; &amp;nbsp; &amp;nbsp; &amp;nbsp; &amp;nbsp; &amp;nbsp;&amp;nbsp;&lt;/b&gt;&lt;/font&gt;&lt;/div&gt;&lt;table style=&quot;width: 100% ; font-size: 12px&quot; cellpadding=&quot;2&quot; cellspacing=&quot;0&quot;&gt;&lt;tbody style=&quot;font-size: 12px&quot;&gt;&lt;tr style=&quot;font-size: 12px&quot;&gt;&lt;td style=&quot;font-size: 12px&quot;&gt;&lt;b style=&quot;font-size: 12px&quot;&gt;&lt;font color=&quot;#ff3333&quot; style=&quot;font-size: 12px&quot;&gt;PK&lt;/font&gt;&lt;/b&gt;&lt;/td&gt;&lt;td style=&quot;font-size: 12px&quot;&gt;PRD_CD&amp;nbsp;&lt;br style=&quot;font-size: 12px&quot;&gt;&lt;/td&gt;&lt;td style=&quot;font-size: 12px&quot;&gt;NUMBER&amp;nbsp; &amp;nbsp; &amp;nbsp; &amp;nbsp; &amp;nbsp; &amp;nbsp;NOT NULL&lt;br style=&quot;font-size: 12px&quot;&gt;&lt;/td&gt;&lt;td style=&quot;font-size: 12px&quot;&gt;&lt;br style=&quot;font-size: 12px&quot;&gt;&lt;/td&gt;&lt;td style=&quot;font-size: 12px&quot;&gt;상품_코드&lt;/td&gt;&lt;/tr&gt;&lt;tr style=&quot;font-size: 12px&quot;&gt;&lt;td style=&quot;font-size: 12px&quot;&gt;&lt;br style=&quot;font-size: 12px&quot;&gt;&lt;/td&gt;&lt;td style=&quot;font-size: 12px&quot;&gt;PRD_NAME&lt;br style=&quot;font-size: 12px&quot;&gt;&lt;/td&gt;&lt;td style=&quot;font-size: 12px&quot;&gt;VARCHAR&amp;nbsp; &amp;nbsp; &amp;nbsp; &amp;nbsp; &amp;nbsp; NOT NULL&lt;/td&gt;&lt;td style=&quot;font-size: 12px&quot;&gt;&lt;br style=&quot;font-size: 12px&quot;&gt;&lt;/td&gt;&lt;td style=&quot;font-size: 12px&quot;&gt;상품_이름&lt;/td&gt;&lt;/tr&gt;&lt;tr style=&quot;font-size: 12px&quot;&gt;&lt;td style=&quot;font-size: 12px&quot;&gt;&lt;br style=&quot;font-size: 12px&quot;&gt;&lt;/td&gt;&lt;td style=&quot;font-size: 12px&quot;&gt;PRD_IMG&lt;br style=&quot;font-size: 12px&quot;&gt;&lt;/td&gt;&lt;td style=&quot;font-size: 12px&quot;&gt;VARCHAR&amp;nbsp; &amp;nbsp; &amp;nbsp; &amp;nbsp; &amp;nbsp; NOT NULL&lt;br style=&quot;font-size: 12px&quot;&gt;&lt;/td&gt;&lt;td style=&quot;font-size: 12px&quot;&gt;&lt;br style=&quot;font-size: 12px&quot;&gt;&lt;/td&gt;&lt;td style=&quot;font-size: 12px&quot;&gt;상품_이미지&lt;/td&gt;&lt;/tr&gt;&lt;tr style=&quot;font-size: 12px&quot;&gt;&lt;td style=&quot;font-size: 12px&quot;&gt;&lt;br style=&quot;font-size: 12px&quot;&gt;&lt;/td&gt;&lt;td style=&quot;font-size: 12px&quot;&gt;PRD_PRICE&lt;/td&gt;&lt;td style=&quot;font-size: 12px&quot;&gt;NUMBER&amp;nbsp; &amp;nbsp; &amp;nbsp; &amp;nbsp; &amp;nbsp; &amp;nbsp; NOT NULL&lt;/td&gt;&lt;td style=&quot;font-size: 12px&quot;&gt;&lt;br style=&quot;font-size: 12px&quot;&gt;&lt;/td&gt;&lt;td style=&quot;font-size: 12px&quot;&gt;상품_가격&lt;/td&gt;&lt;/tr&gt;&lt;tr style=&quot;font-size: 12px&quot;&gt;&lt;td style=&quot;font-size: 12px&quot;&gt;&lt;br style=&quot;font-size: 12px&quot;&gt;&lt;/td&gt;&lt;td style=&quot;font-size: 12px&quot;&gt;PRD_TOT&lt;/td&gt;&lt;td style=&quot;font-size: 12px&quot;&gt;NUMBER&amp;nbsp; &amp;nbsp; &amp;nbsp; &amp;nbsp; &amp;nbsp; &amp;nbsp; NOT NULL&lt;/td&gt;&lt;td style=&quot;font-size: 12px&quot;&gt;&lt;br style=&quot;font-size: 12px&quot;&gt;&lt;/td&gt;&lt;td style=&quot;font-size: 12px&quot;&gt;상품_전체수량&lt;/td&gt;&lt;/tr&gt;&lt;tr style=&quot;font-size: 12px&quot;&gt;&lt;td style=&quot;font-size: 12px&quot;&gt;&lt;br style=&quot;font-size: 12px&quot;&gt;&lt;/td&gt;&lt;td style=&quot;font-size: 12px&quot;&gt;PRD_STOCK&lt;/td&gt;&lt;td style=&quot;font-size: 12px&quot;&gt;NUMBER&amp;nbsp; &amp;nbsp; &amp;nbsp; &amp;nbsp; &amp;nbsp; &amp;nbsp; NOT NULL&lt;/td&gt;&lt;td style=&quot;font-size: 12px&quot;&gt;&lt;br style=&quot;font-size: 12px&quot;&gt;&lt;/td&gt;&lt;td style=&quot;font-size: 12px&quot;&gt;상품_재고&lt;/td&gt;&lt;/tr&gt;&lt;tr style=&quot;font-size: 12px&quot;&gt;&lt;td style=&quot;font-size: 12px&quot;&gt;&lt;br style=&quot;font-size: 12px&quot;&gt;&lt;/td&gt;&lt;td style=&quot;font-size: 12px&quot;&gt;INS_DT&lt;/td&gt;&lt;td style=&quot;font-size: 12px&quot;&gt;VARCHAR&amp;nbsp; &amp;nbsp; &amp;nbsp; &amp;nbsp; &amp;nbsp; &amp;nbsp;&amp;nbsp;&lt;/td&gt;&lt;td style=&quot;font-size: 12px&quot;&gt;&lt;br style=&quot;font-size: 12px&quot;&gt;&lt;/td&gt;&lt;td style=&quot;font-size: 12px&quot;&gt;상품등록날짜&lt;/td&gt;&lt;/tr&gt;&lt;tr style=&quot;font-size: 12px&quot;&gt;&lt;td style=&quot;font-size: 12px&quot;&gt;&lt;br style=&quot;font-size: 12px&quot;&gt;&lt;/td&gt;&lt;td style=&quot;font-size: 12px&quot;&gt;UPD_DT&lt;/td&gt;&lt;td style=&quot;font-size: 12px&quot;&gt;VARCHAR&lt;/td&gt;&lt;td style=&quot;font-size: 12px&quot;&gt;&lt;br style=&quot;font-size: 12px&quot;&gt;&lt;/td&gt;&lt;td style=&quot;font-size: 12px&quot;&gt;상품수정날짜&lt;/td&gt;&lt;/tr&gt;&lt;/tbody&gt;&lt;/table&gt;" style="verticalAlign=top;align=left;overflow=fill;html=1;shadow=0;comic=0;labelBackgroundColor=none;strokeWidth=1;fontFamily=Verdana;fontSize=12;" vertex="1" parent="1">
          <mxGeometry x="250" y="610" width="480" height="180" as="geometry" />
        </mxCell>
        <mxCell id="uZn9lpvFgxxXMUND4M2C-2" style="edgeStyle=orthogonalEdgeStyle;curved=0;rounded=1;sketch=0;orthogonalLoop=1;jettySize=auto;html=1;exitX=0.5;exitY=1;exitDx=0;exitDy=0;startArrow=ERone;startFill=0;fontSize=15;" edge="1" parent="1" source="uZn9lpvFgxxXMUND4M2C-1" target="uZn9lpvFgxxXMUND4M2C-1">
          <mxGeometry relative="1" as="geometry" />
        </mxCell>
      </root>
    </mxGraphModel>
  </diagram>
</mxfile>
